<svg data-v-423bf9ae="" xmlns="http://www.w3.org/2000/svg" viewBox="0 0 603.2161819590465 60" class="font"><!----><!----><!----><g data-v-423bf9ae="" id="d9bda144-2247-4bba-9ca5-af18d10a908f" fill="white" transform="matrix(5.272407679843658,0,0,5.272407679843658,-4.1124743651448625,3.6906856110617845)"><path d="M9.13 5.70L9.18 3.51L7.24 10.50L4.93 10.50L2.98 3.51L3.05 5.70L3.05 10.50L0.78 10.50L0.78-0.42L4.13-0.42L6.09 6.57L8.04-0.42L11.40-0.42L11.40 10.50L9.13 10.50L9.13 5.70ZM15.13 10.50L12.92 10.50L12.92 3.08L15.13 3.08L15.13 10.50ZM12.87-0.31L15.19-0.31L15.19 2.03L12.87 2.03L12.87-0.31ZM19.18 2.90L19.18 2.90L19.18 2.90Q20.38 2.90 21.08 3.71L21.08 3.71L21.08-0.70L23.30-0.70L23.30 8.40L23.42 10.50L21.43 10.50L21.28 9.62L21.28 9.62Q20.55 10.68 19.18 10.68L19.18 10.68L19.18 10.68Q16.42 10.68 16.42 7.04L16.42 7.04L16.42 6.54L16.42 6.54Q16.42 2.90 19.18 2.90ZM21.08 8.08L21.08 5.50L21.08 5.50Q20.61 4.80 19.82 4.80L19.82 4.80L19.82 4.80Q18.62 4.80 18.62 6.54L18.62 6.54L18.62 7.04L18.62 7.04Q18.62 8.78 19.82 8.78L19.82 8.78L19.82 8.78Q20.61 8.78 21.08 8.08L21.08 8.08ZM24.37 10.50L24.37 8.99L27.65 4.97L26.11 5.01L24.51 5.01L24.51 3.08L30.55 3.08L30.55 4.59L27.27 8.61L28.81 8.57L30.69 8.57L30.69 10.50L24.37 10.50ZM31.81 10.50L31.81-0.42L38.43-0.42L38.43 1.54L34.08 1.54L34.08 3.95L37.73 3.95L37.73 5.91L34.08 5.91L34.08 10.50L31.81 10.50ZM43.41 10.68L43.41 10.68L43.41 10.68Q41.27 10.68 40.26 9.41L40.26 9.41L40.26 9.41Q39.26 8.13 39.26 5.32L39.26 5.32L39.26 4.76L39.26 4.76Q39.26 1.95 40.26 0.67L40.26 0.67L40.26 0.67Q41.27-0.60 43.41-0.60L43.41-0.60L43.41-0.60Q45.57-0.60 46.58 0.67L46.58 0.67L46.58 0.67Q47.59 1.95 47.59 4.76L47.59 4.76L47.59 5.32L47.59 5.32Q47.59 8.13 46.58 9.41L46.58 9.41L46.58 9.41Q45.57 10.68 43.41 10.68ZM43.36 8.72L43.36 8.72L43.48 8.72L43.48 8.72Q44.49 8.72 44.88 7.89L44.88 7.89L44.88 7.89Q45.28 7.06 45.28 5.32L45.28 5.32L45.28 4.76L45.28 4.76Q45.28 3.02 44.88 2.19L44.88 2.19L44.88 2.19Q44.49 1.36 43.48 1.36L43.48 1.36L43.36 1.36L43.36 1.36Q42.35 1.36 41.95 2.19L41.95 2.19L41.95 2.19Q41.55 3.02 41.55 4.76L41.55 4.76L41.55 5.32L41.55 5.32Q41.55 7.06 41.95 7.89L41.95 7.89L41.95 7.89Q42.35 8.72 43.36 8.72ZM55.81 9.79L55.81 9.79L55.81 9.79Q54.92 10.68 52.77 10.68L52.77 10.68L52.77 10.68Q50.61 10.68 49.73 9.79L49.73 9.79L49.73 9.79Q48.85 8.90 48.85 7.04L48.85 7.04L48.85-0.42L51.11-0.42L51.11 6.97L51.11 6.97Q51.11 7.88 51.48 8.30L51.48 8.30L51.48 8.30Q51.84 8.72 52.77 8.72L52.77 8.72L52.77 8.72Q53.70 8.72 54.07 8.30L54.07 8.30L54.07 8.30Q54.43 7.88 54.43 6.97L54.43 6.97L54.43-0.42L56.70-0.42L56.70 7.04L56.70 7.04Q56.70 8.90 55.81 9.79ZM64.04-0.42L66.19-0.42L66.19 10.50L63.80 10.50L60.27 3.72L60.34 5.92L60.34 10.50L58.20 10.50L58.20-0.42L60.59-0.42L64.11 6.36L64.04 4.16L64.04-0.42ZM75.71 4.76L75.71 5.32L75.71 5.32Q75.71 8.13 74.64 9.32L74.64 9.32L74.64 9.32Q73.57 10.50 71.11 10.50L71.11 10.50L67.76 10.50L67.76-0.42L71.11-0.42L71.11-0.42Q73.57-0.42 74.64 0.76L74.64 0.76L74.64 0.76Q75.71 1.95 75.71 4.76L75.71 4.76ZM70.03 1.54L70.03 8.54L70.98 8.54L70.98 8.54Q72.35 8.54 72.88 7.78L72.88 7.78L72.88 7.78Q73.40 7.03 73.40 5.32L73.40 5.32L73.40 4.76L73.40 4.76Q73.40 3.05 72.88 2.30L72.88 2.30L72.88 2.30Q72.35 1.54 70.98 1.54L70.98 1.54L70.03 1.54ZM76.45 10.50L79.18-0.45L82.31-0.45L85.04 10.50L82.61 10.50L82.08 8.15L79.41 8.15L78.89 10.50L76.45 10.50ZM81.63 6.19L80.74 2.17L79.84 6.19L81.63 6.19ZM92.79 1.54L90.26 1.54L90.26 10.50L87.99 10.50L87.99 1.54L85.47 1.54L85.47-0.42L92.79-0.42L92.79 1.54ZM93.88-0.42L96.15-0.42L96.15 10.50L93.88 10.50L93.88-0.42ZM101.70 10.68L101.70 10.68L101.70 10.68Q99.55 10.68 98.55 9.41L98.55 9.41L98.55 9.41Q97.54 8.13 97.54 5.32L97.54 5.32L97.54 4.76L97.54 4.76Q97.54 1.95 98.55 0.67L98.55 0.67L98.55 0.67Q99.55-0.60 101.70-0.60L101.70-0.60L101.70-0.60Q103.85-0.60 104.86 0.67L104.86 0.67L104.86 0.67Q105.87 1.95 105.87 4.76L105.87 4.76L105.87 5.32L105.87 5.32Q105.87 8.13 104.86 9.41L104.86 9.41L104.86 9.41Q103.85 10.68 101.70 10.68ZM101.64 8.72L101.64 8.72L101.77 8.72L101.77 8.72Q102.77 8.72 103.17 7.89L103.17 7.89L103.17 7.89Q103.56 7.06 103.56 5.32L103.56 5.32L103.56 4.76L103.56 4.76Q103.56 3.02 103.17 2.19L103.17 2.19L103.17 2.19Q102.77 1.36 101.77 1.36L101.77 1.36L101.64 1.36L101.64 1.36Q100.63 1.36 100.23 2.19L100.23 2.19L100.23 2.19Q99.83 3.02 99.83 4.76L99.83 4.76L99.83 5.32L99.83 5.32Q99.83 7.06 100.23 7.89L100.23 7.89L100.23 7.89Q100.63 8.72 101.64 8.72ZM113.04-0.42L115.19-0.42L115.19 10.50L112.80 10.50L109.27 3.72L109.34 5.92L109.34 10.50L107.20 10.50L107.20-0.42L109.59-0.42L113.11 6.36L113.04 4.16L113.04-0.42Z"></path></g><!----><!----></svg>